<svg width="16" height="14" viewBox="0 0 16 14" fill="none" xmlns="http://www.w3.org/2000/svg">
<path fill-rule="evenodd" clip-rule="evenodd" d="M4.21056 0.842104H16V2.52631H4.21056V0.842104ZM4.21056 7.57895V5.89474H16V7.57895H4.21056ZM1.68424 0.421051C2.38186 0.421051 2.9474 0.986586 2.9474 1.68421C2.9474 2.38183 2.38186 2.94737 1.68424 2.94737C0.986617 2.94737 0.421082 2.38183 0.421082 1.68421C0.421082 0.986586 0.986617 0.421051 1.68424 0.421051ZM1.68424 5.47368C2.38186 5.47368 2.9474 6.03922 2.9474 6.73684C2.9474 7.43446 2.38186 8 1.68424 8C0.986617 8 0.421082 7.43446 0.421082 6.73684C0.421082 6.03922 0.986617 5.47368 1.68424 5.47368ZM4.21056 12.6316V10.9474H16V12.6316H4.21056ZM1.68424 10.5263C2.38186 10.5263 2.9474 11.0918 2.9474 11.7895C2.9474 12.4871 2.38186 13.0526 1.68424 13.0526C0.986617 13.0526 0.421082 12.4871 0.421082 11.7895C0.421082 11.0918 0.986617 10.5263 1.68424 10.5263Z" fill="#8A8DA1"/>
</svg>
