<svg width="16" height="16" viewBox="0 0 16 16" fill="none" xmlns="http://www.w3.org/2000/svg">
<path fill-rule="evenodd" clip-rule="evenodd" d="M11.1965 3.18711H12.7835V1.59911L12.5115 1.59897C12.1073 1.59868 11.7106 1.59838 11.3125 1.60411C11.2735 1.60411 11.2015 1.66811 11.2015 1.70411C11.1952 2.08957 11.1957 2.47565 11.1962 2.86574V2.86581L11.1965 3.18711ZM9.57947 1.59811C9.58966 1.54428 9.59823 1.49248 9.60653 1.4423C9.6243 1.33491 9.64084 1.23488 9.66947 1.13811C9.86547 0.479107 10.4515 0.0251067 11.1415 0.00910675C11.6855 -0.00289325 12.2285 -0.000893254 12.7725 0.00510675C13.6415 0.0151067 14.2685 0.578107 14.3875 1.44411C14.3921 1.47758 14.398 1.51106 14.4061 1.55681L14.4135 1.59911C14.4933 1.59911 14.5732 1.59851 14.6533 1.59791C14.8272 1.59662 15.0016 1.59531 15.1755 1.60011C15.7605 1.61511 16.1385 2.14411 15.9475 2.67311C15.8345 2.98711 15.5455 3.19411 15.1995 3.20011C15.0169 3.2029 14.8333 3.20228 14.6491 3.20165H14.6491C14.57 3.20138 14.4908 3.20111 14.4115 3.20111C14.4044 3.2449 14.3986 3.28732 14.3929 3.32874C14.3817 3.41026 14.371 3.48784 14.3525 3.56411C14.1765 4.29711 13.5685 4.78411 12.7885 4.80111C12.2635 4.81311 11.7385 4.81311 11.2145 4.80311C10.3285 4.78611 9.68547 4.17711 9.60347 3.29311C9.60197 3.28164 9.59973 3.26993 9.59699 3.25561L9.59698 3.25557C9.59423 3.24118 9.59097 3.22415 9.58747 3.20211H9.36547H9.36445C6.52779 3.20211 3.69213 3.20211 0.855467 3.20011C0.348467 3.20011 -0.00553326 2.85811 0.00246674 2.38211C0.0104667 1.95111 0.344467 1.61711 0.798467 1.59911C0.950752 1.59299 1.1035 1.59473 1.25639 1.59647H1.2564C1.3284 1.59729 1.40043 1.59811 1.47247 1.59811H9.36447H9.57947ZM9.61107 14.382H11.1811V12.811H9.61107V14.382ZM12.8051 12.801H13.0131L13.5469 12.8009C14.081 12.8007 14.615 12.8005 15.1491 12.802C15.6371 12.803 15.9881 13.134 15.9931 13.591C15.9981 14.057 15.6481 14.4 15.1521 14.404C14.6774 14.4073 14.2027 14.4062 13.7281 14.4051C13.4907 14.4046 13.2534 14.404 13.0161 14.404H12.8061C12.7781 14.77 12.6851 15.095 12.4651 15.373C12.1611 15.758 11.7681 15.979 11.2761 15.991C10.8269 16.0021 10.3771 16.0001 9.92709 15.998L9.70207 15.997C8.71707 15.993 8.08707 15.415 7.98807 14.404H7.75607L6.61943 14.4041C4.72431 14.4042 2.82919 14.4043 0.934067 14.401C0.781067 14.4 0.618067 14.382 0.477067 14.327C0.127067 14.189 -0.0569333 13.812 0.0160667 13.437C0.0860667 13.077 0.411067 12.805 0.795067 12.803C1.47219 12.7994 2.14931 12.8 2.82643 12.8006C3.08031 12.8008 3.33419 12.801 3.58807 12.801H7.82307H7.98007C7.98725 12.7588 7.99363 12.7171 7.99992 12.676L7.99993 12.676C8.01466 12.5797 8.02894 12.4864 8.05207 12.396C8.22307 11.734 8.77407 11.254 9.48207 11.214C10.0921 11.18 10.7071 11.176 11.3171 11.213C12.1261 11.263 12.7101 11.868 12.7931 12.675C12.7957 12.699 12.798 12.7234 12.8006 12.7528L12.8051 12.801ZM6.38307 8.78301H4.81407V7.21301H6.38307V8.78301ZM4.36007 5.66601C3.62707 5.90201 3.26007 6.42401 3.18607 7.20501H2.97507C2.77677 7.20501 2.57848 7.20484 2.3802 7.20468C1.88456 7.20427 1.38906 7.20386 0.894067 7.20601C0.789067 7.20601 0.679067 7.20901 0.579067 7.23601C0.192067 7.34201 -0.0369333 7.70201 0.00906674 8.11201C0.0520667 8.49101 0.380067 8.79201 0.779067 8.79601C1.2566 8.79989 1.73371 8.79917 2.21068 8.79844C2.47084 8.79805 2.73095 8.79765 2.99107 8.79801H3.19007L3.20207 8.91801C3.28707 9.78201 3.95207 10.394 4.82007 10.4C5.36307 10.404 5.90707 10.408 6.45007 10.398C7.13207 10.384 7.73107 9.92101 7.92407 9.26701C7.95229 9.16985 7.97061 9.07011 7.98977 8.9658C7.99979 8.91121 8.01004 8.85538 8.02207 8.79801H8.24107C9.22207 8.79801 10.2031 8.79826 11.1841 8.79851C12.1651 8.79876 13.1461 8.79901 14.1271 8.79901C14.2171 8.79901 14.3071 8.79935 14.3971 8.7997C14.6821 8.80079 14.9671 8.80189 15.2521 8.79201C15.6581 8.77701 15.9771 8.44301 15.9911 8.03901C16.0081 7.54801 15.6611 7.20501 15.1411 7.20501C13.6077 7.20434 12.0748 7.20456 10.542 7.20478C9.77566 7.2049 9.00936 7.20501 8.24307 7.20501H8.00507C8.00007 7.14001 7.99707 7.10301 7.99307 7.06601C7.90907 6.30101 7.38107 5.69801 6.61907 5.63001C6.1388 5.58732 5.65346 5.59829 5.16847 5.60925C4.97183 5.6137 4.77524 5.61814 4.57907 5.61901C4.50607 5.62001 4.43107 5.64301 4.36007 5.66601Z" fill="#242B35"/>
</svg>
