<svg width="14" height="14" viewBox="0 0 14 14" fill="none" xmlns="http://www.w3.org/2000/svg">
<path fill-rule="evenodd" clip-rule="evenodd" d="M6.99652 6.03673H13.5815C13.5815 6.44829 13.7187 6.72266 13.7187 7.13422C13.8375 8.96314 13.1724 10.7562 11.8895 12.0652C10.6067 13.3742 8.82747 14.0754 6.99652 13.9936C3.13245 13.9936 0 10.8611 0 6.99703C0 3.13296 3.13245 0.000510935 6.99652 0.000510935C8.72168 -0.0206666 10.3899 0.617189 11.6609 1.78394L9.74026 3.70455C9.02076 2.96908 8.02476 2.57068 6.99652 2.60706C4.57886 2.62351 2.623 4.57937 2.60655 6.99703C2.59128 8.16594 3.04888 9.29145 3.8755 10.1181C4.70211 10.9447 5.82762 11.4023 6.99652 11.387C8.89886 11.5447 10.6143 10.2434 10.9749 8.3689H6.99652V6.03673Z" fill="#606797"/>
</svg>
