<svg width="14" height="14" viewBox="0 0 14 14" fill="none" xmlns="http://www.w3.org/2000/svg">
<path fill-rule="evenodd" clip-rule="evenodd" d="M4.06 0H9.94C12.18 0 14 1.82 14 4.06V9.94C14 12.1823 12.1823 14 9.94 14H4.06C1.82 14 0 12.18 0 9.94V4.06C0 1.81772 1.81772 0 4.06 0ZM3.92 1.4C2.52824 1.4 1.4 2.52825 1.4 3.92V10.08C1.4 11.473 2.527 12.6 3.92 12.6H10.08C11.4718 12.6 12.6 11.4718 12.6 10.08V3.92C12.6 2.527 11.473 1.4 10.08 1.4H3.92ZM10.675 2.44999C11.1582 2.44999 11.55 2.84174 11.55 3.32499C11.55 3.80824 11.1582 4.19999 10.675 4.19999C10.1917 4.19999 9.8 3.80824 9.8 3.32499C9.8 2.84174 10.1917 2.44999 10.675 2.44999ZM7 3.5C8.933 3.5 10.5 5.067 10.5 7C10.5 8.933 8.933 10.5 7 10.5C5.067 10.5 3.5 8.933 3.5 7C3.5 5.067 5.067 3.5 7 3.5ZM7 4.9C5.8402 4.9 4.9 5.8402 4.9 7C4.9 8.1598 5.8402 9.1 7 9.1C8.1598 9.1 9.1 8.1598 9.1 7C9.1 5.8402 8.1598 4.9 7 4.9Z" fill="#606797"/>
</svg>
