<svg width="14" height="16" viewBox="0 0 14 16" fill="none" xmlns="http://www.w3.org/2000/svg">
<path fill-rule="evenodd" clip-rule="evenodd" d="M6.85714 9.14286C4.7532 9.14286 3.04762 7.43728 3.04762 5.33333H4.57143C4.57143 6.5957 5.59478 7.61905 6.85714 7.61905C8.11951 7.61905 9.14286 6.5957 9.14286 5.33333H10.6667C10.6667 7.43728 8.96108 9.14286 6.85714 9.14286ZM6.85714 1.52381C8.11951 1.52381 9.14286 2.54716 9.14286 3.80952H4.57143C4.57143 2.54716 5.59478 1.52381 6.85714 1.52381ZM12.1905 3.80952H10.6667C10.6667 2.79918 10.2653 1.83021 9.55088 1.11578C8.83646 0.401359 7.86749 0 6.85714 0C4.7532 0 3.04762 1.70558 3.04762 3.80952H1.52381C0.678095 3.80952 0 4.48762 0 5.33333V14.4762C0 15.3178 0.682233 16 1.52381 16H12.1905C13.0321 16 13.7143 15.3178 13.7143 14.4762V5.33333C13.7143 4.48762 13.0286 3.80952 12.1905 3.80952Z" fill="#8A8DA1"/>
</svg>
