<svg width="16" height="13" viewBox="0 0 16 13" fill="none" xmlns="http://www.w3.org/2000/svg">
<path fill-rule="evenodd" clip-rule="evenodd" d="M14.4 12.8H4C3.11634 12.8 2.4 12.0837 2.4 11.2V3.952L0.184 1.312C0.072 1.176 0 0.992 0 0.8C0 0.358172 0.358172 0 0.8 0H14.4C15.2837 0 16 0.716344 16 1.6V11.2C16 12.0837 15.2837 12.8 14.4 12.8ZM5.2 2.4C4.97909 2.4 4.8 2.57909 4.8 2.8V3.6C4.8 3.82091 4.97909 4 5.2 4H13.2C13.4209 4 13.6 3.82091 13.6 3.6V2.8C13.6 2.57909 13.4209 2.4 13.2 2.4H5.2ZM5.2 5.6C4.97909 5.6 4.8 5.77909 4.8 6V6.8C4.8 7.02091 4.97909 7.2 5.2 7.2H13.2C13.4209 7.2 13.6 7.02091 13.6 6.8V6C13.6 5.77909 13.4209 5.6 13.2 5.6H5.2ZM5.2 8.8C4.97909 8.8 4.8 8.97909 4.8 9.2V10C4.8 10.2209 4.97909 10.4 5.2 10.4H9.2C9.42091 10.4 9.6 10.2209 9.6 10V9.2C9.6 8.97909 9.42091 8.8 9.2 8.8H5.2Z" fill="#8A8DA1"/>
</svg>
