<svg width="16" height="16" viewBox="0 0 16 16" fill="none" xmlns="http://www.w3.org/2000/svg">
<path fill-rule="evenodd" clip-rule="evenodd" d="M12.8 12.8C11.912 12.8 11.2 13.512 11.2 14.4C11.2 15.2837 11.9163 16 12.8 16C13.6837 16 14.4 15.2837 14.4 14.4C14.4 13.512 13.68 12.8 12.8 12.8ZM0 0V1.6H1.6L4.48 7.672L3.392 9.632C3.272 9.856 3.2 10.12 3.2 10.4C3.2 11.2837 3.91634 12 4.8 12H14.4V10.4H5.136C5.02554 10.4 4.936 10.3105 4.936 10.2C4.936 10.16 4.944 10.128 4.96 10.104L5.68 8.8H11.64C12.24 8.8 12.768 8.464 13.04 7.976L15.904 2.8C15.96 2.672 16 2.536 16 2.4C16 1.95817 15.6418 1.6 15.2 1.6H3.368L2.616 0M4.8 12.8C3.912 12.8 3.2 13.512 3.2 14.4C3.2 15.2837 3.91634 16 4.8 16C5.68366 16 6.4 15.2837 6.4 14.4C6.4 13.512 5.68 12.8 4.8 12.8Z" fill="#8A8DA1"/>
</svg>
