<svg width="16" height="16" viewBox="0 0 16 16" fill="none" xmlns="http://www.w3.org/2000/svg">
<path fill-rule="evenodd" clip-rule="evenodd" d="M14.5455 13.0909V13.8182H1.45455V13.0909L2.90909 11.6364V7.27273C2.90909 5.01818 4.38545 3.03273 6.54545 2.39273C6.54545 2.32 6.54545 2.25454 6.54545 2.18182C6.54545 1.37849 7.19668 0.727272 8 0.727272C8.80332 0.727272 9.45455 1.37849 9.45455 2.18182C9.45455 2.25454 9.45455 2.32 9.45455 2.39273C11.6145 3.03273 13.0909 5.01818 13.0909 7.27273V11.6364L14.5455 13.0909ZM9.45455 14.5455C9.45455 15.3488 8.80332 16 8 16C7.19668 16 6.54545 15.3488 6.54545 14.5455M13.6364 1.59273L12.6036 2.62545C13.8473 3.85454 14.5455 5.52727 14.5455 7.27273H16C16 5.14182 15.1564 3.09091 13.6364 1.59273ZM0 7.27273H1.45455C1.45455 5.52727 2.15273 3.85454 3.39636 2.62545L2.36364 1.59273C0.843636 3.09091 0 5.14182 0 7.27273Z" fill="#8A8DA1"/>
</svg>
