<svg width="16" height="16" viewBox="0 0 16 16" fill="none" xmlns="http://www.w3.org/2000/svg">
<path fill-rule="evenodd" clip-rule="evenodd" d="M7.79831 10.8143C7.05154 10.812 6.33593 10.5147 5.80731 9.98728C5.28109 9.46075 4.9956 8.74033 5.01831 7.99628C4.99588 7.25256 5.28135 6.53256 5.80731 6.00628C6.33383 5.48006 7.05425 5.19457 7.79831 5.21728C8.54236 5.19457 9.26278 5.48006 9.78931 6.00628C10.3152 6.53297 10.6003 7.25337 10.5773 7.99728C10.6 8.74133 10.3145 9.46175 9.78831 9.98828C9.25977 10.5151 8.54458 10.812 7.79831 10.8143ZM13.7703 8.78628C13.7956 8.53561 13.8083 8.27261 13.8083 7.99728C13.8083 7.72194 13.7956 7.45894 13.7703 7.20828L15.4603 5.89328C15.6082 5.75862 15.6397 5.5379 15.5353 5.36728L13.9203 2.58828C13.8251 2.41435 13.6088 2.34784 13.4323 2.43828L11.4413 3.22728C11.0332 2.89729 10.5773 2.63126 10.0893 2.43828L9.78931 0.338276C9.77394 0.143478 9.60864 -0.00512106 9.41331 0.00027596H6.18331C5.98798 -0.00512106 5.82267 0.143478 5.80731 0.338276L5.50731 2.43828C5.01927 2.63126 4.5634 2.89729 4.15531 3.22728L2.16431 2.43828C1.98811 2.3485 1.77246 2.41492 1.67731 2.58828L0.061308 5.37128C-0.0430857 5.5419 -0.0116142 5.76262 0.136308 5.89728L1.82631 7.21228C1.80097 7.46294 1.78831 7.72594 1.78831 8.00128C1.78831 8.27661 1.80097 8.53961 1.82631 8.79028L0.136308 10.1003C-0.0116142 10.2349 -0.0430857 10.4556 0.061308 10.6263L1.67731 13.4053C1.77249 13.5792 1.98886 13.6457 2.16531 13.5553L4.15431 12.7713C4.5624 13.1013 5.01827 13.3673 5.50631 13.5603L5.80631 15.6603C5.82167 15.8551 5.98698 16.0037 6.18231 15.9983H9.41231C9.60764 16.0037 9.77294 15.8551 9.78831 15.6603L10.0883 13.5603C10.5767 13.3674 11.0329 13.1013 11.4413 12.7713L13.4323 13.5603C13.6088 13.6507 13.8251 13.5842 13.9203 13.4103L15.5353 10.6263C15.6397 10.4556 15.6082 10.2349 15.4603 10.1003L13.7703 8.78628Z" fill="#8A8DA1"/>
</svg>
