<svg width="14" height="13" viewBox="0 0 14 13" fill="none" xmlns="http://www.w3.org/2000/svg">
<path fill-rule="evenodd" clip-rule="evenodd" d="M4.43362 12.1058C6.60558 12.1254 8.69426 11.2712 10.23 9.73526C11.7658 8.19932 12.6198 6.11055 12.6 3.9386V3.5501C13.1434 3.13634 13.6162 2.63724 14 2.07222C13.4784 2.29896 12.9291 2.45577 12.3664 2.5386C12.9448 2.17533 13.3834 1.62701 13.6106 0.982847C13.0487 1.29573 12.4471 1.5312 11.8221 1.68285C11.2895 1.08344 10.5239 0.74339 9.72213 0.750097C8.14274 0.774035 6.86819 2.04859 6.84425 3.62797C6.82658 3.83851 6.85311 4.05041 6.92212 4.2501C4.60645 4.13834 2.45168 3.03257 1.01063 1.21647C0.754659 1.66687 0.620742 2.1763 0.622125 2.69435C0.642927 3.64702 1.10203 4.53682 1.86637 5.10585C1.39893 5.0964 0.942496 4.96228 0.54425 4.71735C0.542747 6.09217 1.52529 7.27107 2.87788 7.51735C2.62459 7.58569 2.36181 7.612 2.1 7.59522C1.91513 7.60764 1.72972 7.58111 1.55575 7.51735C1.94538 8.69837 3.03465 9.50753 4.27787 9.53947C3.25544 10.3381 1.99733 10.7756 0.7 10.7837C0.463974 10.7964 0.227478 10.77 0 10.7058C1.28716 11.6405 2.8431 12.1319 4.43362 12.1058Z" fill="#606797"/>
</svg>
