<svg width="16" height="12" viewBox="0 0 16 12" fill="none" xmlns="http://www.w3.org/2000/svg">
<path fill-rule="evenodd" clip-rule="evenodd" d="M8 3.63636C6.79502 3.63636 5.81818 4.61319 5.81818 5.81818C5.81818 7.02316 6.79502 8 8 8C9.20498 8 10.1818 7.02316 10.1818 5.81818C10.1818 4.61319 9.20498 3.63636 8 3.63636ZM8 9.45454C5.99169 9.45454 4.36364 7.82649 4.36364 5.81818C4.36364 3.80987 5.99169 2.18181 8 2.18181C10.0083 2.18181 11.6364 3.80987 11.6364 5.81818C11.6364 7.82649 10.0083 9.45454 8 9.45454ZM8 0.363632C4.36364 0.363632 1.25818 2.62545 0 5.81818C1.25818 9.01091 4.36364 11.2727 8 11.2727C11.6364 11.2727 14.7418 9.01091 16 5.81818C14.7418 2.62545 11.6364 0.363632 8 0.363632Z" fill="#8A8DA1"/>
</svg>
